<svg xmlns="http://www.w3.org/2000/svg" xmlns:xlink="http://www.w3.org/1999/xlink" width="500" zoomAndPan="magnify" viewBox="0 0 375 374.999991" height="500" preserveAspectRatio="xMidYMid meet" version="1.0"><defs><clipPath id="116cfd7f2b"><path d="M 18.75 18.75 L 356.25 18.75 L 356.25 356.25 L 18.75 356.25 Z M 18.75 18.75 " clip-rule="nonzero"/></clipPath><clipPath id="2b89655654"><path d="M 187.5 18.75 C 94.300781 18.75 18.75 94.300781 18.75 187.5 C 18.75 280.699219 94.300781 356.25 187.5 356.25 C 280.699219 356.25 356.25 280.699219 356.25 187.5 C 356.25 94.300781 280.699219 18.75 187.5 18.75 Z M 187.5 18.75 " clip-rule="nonzero"/></clipPath><clipPath id="2e48305e08"><path d="M 52.339844 117 L 188 117 L 188 221 L 52.339844 221 Z M 52.339844 117 " clip-rule="nonzero"/></clipPath><clipPath id="8b234bf2c0"><path d="M 184 116 L 322.339844 116 L 322.339844 322.339844 L 184 322.339844 Z M 184 116 " clip-rule="nonzero"/></clipPath><clipPath id="536d01e732"><path d="M 52.339844 116 L 188 116 L 188 322.339844 L 52.339844 322.339844 Z M 52.339844 116 " clip-rule="nonzero"/></clipPath><clipPath id="ff61ddcf8c"><path d="M 187 117 L 322.339844 117 L 322.339844 215 L 187 215 Z M 187 117 " clip-rule="nonzero"/></clipPath><clipPath id="bd172457d6"><path d="M 91.242188 79.242188 L 279.539062 79.242188 L 279.539062 135.878906 L 91.242188 135.878906 Z M 91.242188 79.242188 " clip-rule="nonzero"/></clipPath><clipPath id="f14d92b6b6"><path d="M 113.535156 79.242188 L 261.140625 79.242188 L 261.140625 139.550781 L 113.535156 139.550781 Z M 113.535156 79.242188 " clip-rule="nonzero"/></clipPath><clipPath id="d578f631a3"><path d="M 176 52.339844 L 199 52.339844 L 199 96 L 176 96 Z M 176 52.339844 " clip-rule="nonzero"/></clipPath></defs><g clip-path="url(#116cfd7f2b)"><g clip-path="url(#2b89655654)"><path fill="#ffffff" d="M 18.75 18.75 L 356.25 18.75 L 356.25 356.25 L 18.75 356.25 Z M 18.75 18.75 " fill-opacity="1" fill-rule="nonzero"/></g></g><g clip-path="url(#2e48305e08)"><path stroke-linecap="butt" transform="matrix(0.189901, 0, 0, 0.189901, -2.56055, -4.123853)" fill-opacity="1" fill="#000000" fill-rule="nonzero" stroke-linejoin="round" d="M 289.100465 638.176857 L 578.8283 1180.956295 L 347.82769 693.180921 C 347.82769 693.180921 812.009325 755.117059 999.854166 934.404798 C 999.854166 934.404798 897.374643 698.611389 289.100465 638.176857 Z M 289.100465 638.176857 " stroke="#000000" stroke-width="0.36" stroke-opacity="1" stroke-miterlimit="2"/></g><g clip-path="url(#8b234bf2c0)"><path stroke-linecap="butt" transform="matrix(0.171605, -0.0459815, -0.0459815, -0.171605, 165.121942, 415.584885)" fill-opacity="1" fill="#000000" fill-rule="nonzero" stroke-linejoin="round" d="M 256.64049 474.602993 C 256.64049 474.602993 265.695954 534.478937 319.406349 747.67182 C 383.088274 1000.372691 513.150685 1520.348096 489.375105 1343.180623 C 483.971716 1302.881102 514.078035 1317.713725 562.733124 1330.580937 C 629.31329 1348.160078 731.032596 1376.332399 827.746683 1385.655078 C 1028.418817 1404.999932 1289.9482 1394.994936 1289.9482 1394.994936 C 1259.556855 1382.241831 912.715106 609.250253 912.715106 609.250253 Z M 256.64049 474.602993 " stroke="#000000" stroke-width="0.38" stroke-opacity="1" stroke-miterlimit="2"/></g><g clip-path="url(#536d01e732)"><path stroke-linecap="butt" transform="matrix(-0.171605, -0.0459815, 0.0459815, -0.171605, 207.463834, 415.584885)" fill-opacity="1" fill="#000000" fill-rule="nonzero" stroke-linejoin="round" d="M 245.255953 477.653469 C 245.255953 477.653469 265.695079 534.479172 319.405474 747.672055 C 383.087399 1000.372926 514.345298 1512.152 490.569718 1334.984527 C 484.750387 1291.518585 514.747115 1315.37196 570.107615 1333.38518 C 636.263346 1354.902233 736.619812 1376.88398 827.745807 1385.655313 C 1028.417942 1405.000166 1278.563664 1398.045413 1278.563664 1398.045413 C 1283.305583 1415.827456 912.714231 609.250488 912.714231 609.250488 Z M 245.255953 477.653469 " stroke="#000000" stroke-width="0.38" stroke-opacity="1" stroke-miterlimit="2"/></g><path stroke-linecap="butt" transform="matrix(0.189901, 0, 0, 0.189901, -2.56055, -4.123853)" fill-opacity="1" fill="#000000" fill-rule="nonzero" stroke-linejoin="round" d="M 510.577185 538.988528 L 510.577185 638.176857 C 819.558499 677.794593 990.021727 854.511088 990.021727 854.511088 C 865.450071 634.762245 510.577185 538.988528 510.577185 538.988528 Z M 510.577185 538.988528 " stroke="#000000" stroke-width="0.36" stroke-opacity="1" stroke-miterlimit="2"/><path stroke-linecap="butt" transform="matrix(0.189901, 0, 0, 0.189901, -2.56055, -4.123853)" fill-opacity="1" fill="#000000" fill-rule="nonzero" stroke-linejoin="round" d="M 692.148189 486.535139 L 692.148189 574.327713 C 888.550132 653.563185 989.733747 801.79029 989.733747 801.79029 C 920.474704 596.851815 692.148189 486.535139 692.148189 486.535139 Z M 692.148189 486.535139 " stroke="#000000" stroke-width="0.36" stroke-opacity="1" stroke-miterlimit="2"/><g clip-path="url(#ff61ddcf8c)"><path stroke-linecap="butt" transform="matrix(0.189901, 0, 0, 0.189901, -2.56055, -4.123853)" fill-opacity="1" fill="#000000" fill-rule="nonzero" stroke-linejoin="round" d="M 1710.875276 638.176857 C 1102.601098 698.611389 999.854166 934.404798 999.854166 934.404798 C 1187.678437 755.117059 1652.168621 693.180921 1652.168621 693.180921 L 1551.540394 1151.808667 Z M 1710.875276 638.176857 " stroke="#000000" stroke-width="0.36" stroke-opacity="1" stroke-miterlimit="2"/></g><g clip-path="url(#bd172457d6)"><path stroke-linecap="butt" transform="matrix(0.0972848, 0, 0, 0.0972848, 91.242392, 97.586156)" fill="none" stroke-linejoin="miter" d="M 967.759253 -0.0022459 C 433.286122 -0.0022459 -0.00210319 433.285979 -0.00210319 967.759111 C -0.00210319 1502.232242 433.286122 1935.520467 967.759253 1935.520467 C 1502.232385 1935.520467 1935.52061 1502.232242 1935.52061 967.759111 C 1935.52061 433.285979 1502.232385 -0.0022459 967.759253 -0.0022459 Z M 967.759253 -0.0022459 " stroke="#000000" stroke-width="84.029999" stroke-opacity="1" stroke-miterlimit="4"/></g><g clip-path="url(#f14d92b6b6)"><path stroke-linecap="butt" transform="matrix(0.0762606, 0, 0, 0.0762606, 113.537078, 113.627117)" fill="none" stroke-linejoin="miter" d="M 967.770258 0.0234684 C 433.264829 0.0234684 -0.0251977 433.262273 -0.0251977 967.767702 C -0.0251977 1502.221909 433.264829 1935.511936 967.770258 1935.511936 C 1502.224465 1935.511936 1935.514492 1502.221909 1935.514492 967.767702 C 1935.514492 433.262273 1502.224465 0.0234684 967.770258 0.0234684 Z M 967.770258 0.0234684 " stroke="#000000" stroke-width="78.099998" stroke-opacity="1" stroke-miterlimit="4"/></g><g clip-path="url(#d578f631a3)"><path stroke-linecap="round" transform="matrix(0.0794102, 0, 0, 0.0794102, -516.315322, -674.500684)" fill-opacity="1" fill="#000000" fill-rule="evenodd" stroke-linejoin="round" d="M 8861.019428 9152.989066 L 9001.508339 9426.932605 L 8861.019428 9700.826953 L 8720.481326 9426.932605 Z M 8861.019428 9152.989066 " stroke="#000000" stroke-width="0.85" stroke-opacity="1" stroke-miterlimit="1.5"/></g><path stroke-linecap="butt" transform="matrix(0.129713, 0, 0, 0.172451, 57.625789, 41.389173)" fill-opacity="1" fill="#000000" fill-rule="nonzero" stroke-linejoin="round" d="M 970.646273 264.621789 L 1029.369657 264.621789 L 1047.709421 727.457349 L 1000.007965 766.304459 L 952.276394 727.457349 Z M 970.646273 264.621789 " stroke="#000000" stroke-width="0.44" stroke-opacity="1" stroke-miterlimit="2"/><path stroke-linecap="butt" transform="matrix(0.189901, 0, 0, 0.189901, -2.56055, -4.123853)" fill-opacity="1" fill="#000000" fill-rule="nonzero" stroke-linejoin="round" d="M 1489.686536 538.988528 C 1489.686536 538.988528 1134.813649 634.474265 1010.241994 854.243679 C 1010.241994 854.243679 1180.705222 677.506614 1489.686536 637.888878 Z M 1489.686536 538.988528 " stroke="#000000" stroke-width="0.36" stroke-opacity="1" stroke-miterlimit="2"/><path stroke-linecap="butt" transform="matrix(0.189901, 0, 0, 0.189901, -2.56055, -4.123853)" fill-opacity="1" fill="#000000" fill-rule="nonzero" stroke-linejoin="round" d="M 1307.827552 574.327713 L 1307.827552 486.535139 C 1307.827552 486.535139 1079.521607 596.851815 1010.241994 801.79029 C 1010.241994 801.79029 1111.446179 653.563185 1307.827552 574.327713 Z M 1307.827552 574.327713 " stroke="#000000" stroke-width="0.36" stroke-opacity="1" stroke-miterlimit="2"/></svg>